<?xml version="1.0" standalone="yes"?>

<svg version="1.1" viewBox="0.0 0.0 1000.0 866.0" fill="none" stroke="none" stroke-linecap="square" stroke-miterlimit="10" xmlns="http://www.w3.org/2000/svg" xmlns:xlink="http://www.w3.org/1999/xlink"><clipPath id="p.0"><path d="m0 0l1000.0 0l0 866.0l-1000.0 0l0 -866.0z" clip-rule="nonzero"></path></clipPath><g clip-path="url(#p.0)"><path fill="#000000" fill-opacity="0.0" d="m0 0l1000.0 0l0 866.0l-1000.0 0z" fill-rule="evenodd"></path><defs><radialGradient id="p.1" gradientUnits="userSpaceOnUse" gradientTransform="matrix(25.710957871281124 0.0 0.0 25.710957871281124 0.0 0.0)" spreadMethod="pad" cx="19.446961194646697" cy="16.863448273966576" fx="19.446961194646697" fy="16.863448273966576" r="25.71095848083496"><stop offset="0.0" stop-color="#fff6db"></stop><stop offset="1.0" stop-color="#fad25c"></stop></radialGradient></defs><path fill="url(#p.1)" d="m0 866.0006l500.0 -864.8504l500.0 864.8504z" fill-rule="evenodd"></path><path fill="#000000" fill-opacity="0.0" d="m385.92126 384.56693l228.15747 0l0 98.01575l-228.15747 0z" fill-rule="evenodd"></path><path fill="#000000" d="m522.7298 231.0279l0 289.67188q0 23.15625 -23.15625 23.15625q-23.171875 0 -23.171875 -23.15625q0 -10.671875 -0.65625 -31.875q-0.640625 -21.21875 -0.640625 -31.640625q0 -37.734375 0.640625 -113.078125q0.65625 -75.34375 0.65625 -113.078125q0 -23.15625 23.171875 -23.15625q23.15625 0 23.15625 23.15625zm0.265625 388.5625q0 9.375 -7.421875 16.265625q-7.421875 6.890625 -16.78125 6.890625q-10.40625 0 -20.828125 -13.53125q-10.140625 -12.75 -10.140625 -23.421875q0 -9.375 7.40625 -16.140625q7.421875 -6.765625 17.046875 -6.765625q10.15625 0 20.828125 13.53125q9.890625 12.765625 9.890625 23.171875z" fill-rule="nonzero"></path></g></svg>

