<?xml version="1.0" standalone="yes"?>

<svg version="1.1" viewBox="0.0 0.0 1000.0 1000.0" fill="none" stroke="none" stroke-linecap="square" stroke-miterlimit="10" xmlns="http://www.w3.org/2000/svg" xmlns:xlink="http://www.w3.org/1999/xlink"><clipPath id="p.0"><path d="m0 0l1000.0 0l0 1000.0l-1000.0 0l0 -1000.0z" clip-rule="nonzero"></path></clipPath><g clip-path="url(#p.0)"><path fill="#000000" fill-opacity="0.0" d="m0 0l1000.0 0l0 1000.0l-1000.0 0z" fill-rule="nonzero"></path><path fill="#000000" fill-opacity="0.0" d="m0 339.43307l0 0c0 -187.46371 151.96936 -339.43307 339.43307 -339.43307l0 0c90.023254 0 176.35934 35.761597 240.01541 99.41765c63.656067 63.65605 99.41766 149.99217 99.41766 240.01543l0 0c0 187.46371 -151.96936 339.43307 -339.43307 339.43307l0 0c-187.46371 0 -339.43307 -151.96936 -339.43307 -339.43307z" fill-rule="nonzero"></path><path stroke="#cc0000" stroke-width="8.0" stroke-linejoin="round" stroke-linecap="butt" d="m0 339.43307l0 0c0 -187.46371 151.96936 -339.43307 339.43307 -339.43307l0 0c90.023254 0 176.35934 35.761597 240.01541 99.41765c63.656067 63.65605 99.41766 149.99217 99.41766 240.01543l0 0c0 187.46371 -151.96936 339.43307 -339.43307 339.43307l0 0c-187.46371 0 -339.43307 -151.96936 -339.43307 -339.43307z" fill-rule="nonzero"></path><path fill="#000000" fill-opacity="0.0" d="m321.13385 339.43307l0 0c0 -187.46371 151.96936 -339.43307 339.4331 -339.43307l0 0c90.02319 0 176.35938 35.761597 240.01538 99.41765c63.656067 63.65605 99.41766 149.99217 99.41766 240.01543l0 0c0 187.46371 -151.96936 339.43307 -339.43304 339.43307l0 0c-187.46375 0 -339.4331 -151.96936 -339.4331 -339.43307z" fill-rule="nonzero"></path><path stroke="#1155cc" stroke-width="8.0" stroke-linejoin="round" stroke-linecap="butt" d="m321.13385 339.43307l0 0c0 -187.46371 151.96936 -339.43307 339.4331 -339.43307l0 0c90.02319 0 176.35938 35.761597 240.01538 99.41765c63.656067 63.65605 99.41766 149.99217 99.41766 240.01543l0 0c0 187.46371 -151.96936 339.43307 -339.43304 339.43307l0 0c-187.46375 0 -339.4331 -151.96936 -339.4331 -339.43307z" fill-rule="nonzero"></path><path fill="#000000" fill-opacity="0.0" d="m0 660.56696l0 0c0 -187.46375 151.96936 -339.4331 339.43307 -339.4331l0 0c90.023254 0 176.35934 35.761597 240.01541 99.41766c63.656067 63.656036 99.41766 149.99219 99.41766 240.01544l0 0c0 187.46368 -151.96936 339.43304 -339.43307 339.43304l0 0c-187.46371 0 -339.43307 -151.96936 -339.43307 -339.43304z" fill-rule="nonzero"></path><path stroke="#32c658" stroke-width="8.0" stroke-linejoin="round" stroke-linecap="butt" d="m0 660.56696l0 0c0 -187.46375 151.96936 -339.4331 339.43307 -339.4331l0 0c90.023254 0 176.35934 35.761597 240.01541 99.41766c63.656067 63.656036 99.41766 149.99219 99.41766 240.01544l0 0c0 187.46368 -151.96936 339.43304 -339.43307 339.43304l0 0c-187.46371 0 -339.43307 -151.96936 -339.43307 -339.43304z" fill-rule="nonzero"></path><path fill="#000000" fill-opacity="0.0" d="m321.13385 660.56696l0 0c0 -187.46375 151.96936 -339.4331 339.4331 -339.4331l0 0c90.02319 0 176.35938 35.761597 240.01538 99.41766c63.656067 63.656036 99.41766 149.99219 99.41766 240.01544l0 0c0 187.46368 -151.96936 339.43304 -339.43304 339.43304l0 0c-187.46375 0 -339.4331 -151.96936 -339.4331 -339.43304z" fill-rule="nonzero"></path><path stroke="#434343" stroke-width="8.0" stroke-linejoin="round" stroke-linecap="butt" d="m321.13385 660.56696l0 0c0 -187.46375 151.96936 -339.4331 339.4331 -339.4331l0 0c90.02319 0 176.35938 35.761597 240.01538 99.41766c63.656067 63.656036 99.41766 149.99219 99.41766 240.01544l0 0c0 187.46368 -151.96936 339.43304 -339.43304 339.43304l0 0c-187.46375 0 -339.4331 -151.96936 -339.4331 -339.43304z" fill-rule="nonzero"></path></g></svg>

